<svg xmlns="http://www.w3.org/2000/svg" width="805" height="600"><rect width="805" height="600" x="0" y="0" fill="#FFFFFF" id="background"/><g transform="translate(10,10)" id="visualization"><g><rect x="780" y="0" height="19.464285714285666" width="5" fill="black"><title>28: 1</title></rect><rect x="780" y="24.464285714285666" height="38.92857142857143" width="5" fill="black"><title>21: 2</title></rect><rect x="780" y="68.3928571428571" height="38.928571428571445" width="5" fill="black"><title>25: 2</title></rect><rect x="780" y="112.32142857142854" height="38.92857142857146" width="5" fill="black"><title>23: 2</title></rect><rect x="780" y="156.25" height="58.39285714285717" width="5" fill="black"><title>19: 3</title></rect><rect x="780" y="219.64285714285717" height="77.85714285714283" width="5" fill="black"><title>20: 4</title></rect><rect x="0" y="10" height="77.85714285714289" width="5" fill="black"><title>IN23: 4</title></rect><rect x="0" y="92.85714285714289" height="116.78571428571428" width="5" fill="black"><title>A22: 6</title></rect><rect x="780" y="302.5" height="136.25" width="5" fill="black"><title>22: 7</title></rect><rect x="780" y="443.75" height="136.25" width="5" fill="black"><title>24: 7</title></rect><rect x="0" y="214.64285714285717" height="155.71428571428572" width="5" fill="black"><title>L20: 8</title></rect><rect x="0" y="375.3571428571429" height="194.6428571428571" width="5" fill="black"><title>S10-Rev23: 10</title></rect></g><g fill="none" stroke-opacity="1"><g style="mix-blend-mode: multiply;"><path d="M5,102.58928571428575C392.5,102.58928571428575,392.5,34.19642857142853,780,34.19642857142853" stroke="#fbf29b" stroke-width="19.464285714285715"/><title>A22 → 21: 1</title></g><g style="mix-blend-mode: multiply;"><path d="M5,199.91071428571433C392.5,199.91071428571433,392.5,229.37500000000003,780,229.37500000000003" stroke="#fbf29b" stroke-width="19.464285714285715"/><title>A22 → 20: 1</title></g><g style="mix-blend-mode: multiply;"><path d="M5,160.98214285714292C392.5,160.98214285714292,392.5,185.44642857142858,780,185.44642857142858" stroke="#fbf29b" stroke-width="58.392857142857146"/><title>A22 → 19: 3</title></g><g style="mix-blend-mode: multiply;"><path d="M5,122.05357142857147C392.5,122.05357142857147,392.5,78.12499999999996,780,78.12499999999996" stroke="#fbf29b" stroke-width="19.464285714285715"/><title>A22 → 25: 1</title></g><g style="mix-blend-mode: multiply;"><path d="M5,48.92857142857143C392.5,48.92857142857143,392.5,341.42857142857144,780,341.42857142857144" stroke="#feb3f7" stroke-width="77.85714285714286"/><title>IN23 → 22: 4</title></g><g style="mix-blend-mode: multiply;"><path d="M5,350.8928571428572C392.5,350.8928571428572,392.5,399.8214285714286,780,399.8214285714286" stroke="#b8f970" stroke-width="38.92857142857143"/><title>L20 → 22: 2</title></g><g style="mix-blend-mode: multiply;"><path d="M5,302.2321428571429C392.5,302.2321428571429,392.5,268.30357142857144,780,268.30357142857144" stroke="#b8f970" stroke-width="58.392857142857146"/><title>L20 → 20: 3</title></g><g style="mix-blend-mode: multiply;"><path d="M5,224.37500000000003C392.5,224.37500000000003,392.5,53.660714285714235,780,53.660714285714235" stroke="#b8f970" stroke-width="19.464285714285715"/><title>L20 → 21: 1</title></g><g style="mix-blend-mode: multiply;"><path d="M5,243.83928571428575C392.5,243.83928571428575,392.5,97.58928571428567,780,97.58928571428567" stroke="#b8f970" stroke-width="19.464285714285715"/><title>L20 → 25: 1</title></g><g style="mix-blend-mode: multiply;"><path d="M5,424.01785714285717C392.5,424.01785714285717,392.5,429.01785714285717,780,429.01785714285717" stroke="#fecb6b" stroke-width="19.464285714285715"/><title>S10-Rev23 → 22: 1</title></g><g style="mix-blend-mode: multiply;"><path d="M5,501.87500000000006C392.5,501.87500000000006,392.5,511.875,780,511.875" stroke="#fecb6b" stroke-width="136.25"/><title>S10-Rev23 → 24: 7</title></g><g style="mix-blend-mode: multiply;"><path d="M5,385.0892857142857C392.5,385.0892857142857,392.5,9.732142857142858,780,9.732142857142858" stroke="#fecb6b" stroke-width="19.464285714285715"/><title>S10-Rev23 → 28: 1</title></g><g style="mix-blend-mode: multiply;"><path d="M5,404.55357142857144C392.5,404.55357142857144,392.5,141.5178571428571,780,141.5178571428571" stroke="#fecb6b" stroke-width="19.464285714285715"/><title>S10-Rev23 → 23: 1</title></g><g style="mix-blend-mode: multiply;"><path d="M5,263.30357142857144C392.5,263.30357142857144,392.5,122.0535714285714,780,122.0535714285714" stroke="#b8f970" stroke-width="19.464285714285715"/><title>L20 → 23: 1</title></g></g><g><text x="776" y="9.732142857142833" text-anchor="end"><tspan alignment-baseline="middle" x="776" style="font-family: Arial, sans-serif; font-size: 10px; fill: black; font-weight: bold;">28</tspan></text><text x="776" y="43.92857142857138" text-anchor="end"><tspan alignment-baseline="middle" x="776" style="font-family: Arial, sans-serif; font-size: 10px; fill: black; font-weight: bold;">21</tspan></text><text x="776" y="87.85714285714282" text-anchor="end"><tspan alignment-baseline="middle" x="776" style="font-family: Arial, sans-serif; font-size: 10px; fill: black; font-weight: bold;">25</tspan></text><text x="776" y="131.78571428571428" text-anchor="end"><tspan alignment-baseline="middle" x="776" style="font-family: Arial, sans-serif; font-size: 10px; fill: black; font-weight: bold;">23</tspan></text><text x="776" y="185.44642857142858" text-anchor="end"><tspan alignment-baseline="middle" x="776" style="font-family: Arial, sans-serif; font-size: 10px; fill: black; font-weight: bold;">19</tspan></text><text x="776" y="258.57142857142856" text-anchor="end"><tspan alignment-baseline="middle" x="776" style="font-family: Arial, sans-serif; font-size: 10px; fill: black; font-weight: bold;">20</tspan></text><text x="9" y="48.928571428571445" text-anchor="start"><tspan alignment-baseline="middle" x="9" style="font-family: Arial, sans-serif; font-size: 10px; fill: black; font-weight: bold;">IN23</tspan></text><text x="9" y="151.25000000000003" text-anchor="start"><tspan alignment-baseline="middle" x="9" style="font-family: Arial, sans-serif; font-size: 10px; fill: black; font-weight: bold;">A22</tspan></text><text x="776" y="370.625" text-anchor="end"><tspan alignment-baseline="middle" x="776" style="font-family: Arial, sans-serif; font-size: 10px; fill: black; font-weight: bold;">22</tspan></text><text x="776" y="511.875" text-anchor="end"><tspan alignment-baseline="middle" x="776" style="font-family: Arial, sans-serif; font-size: 10px; fill: black; font-weight: bold;">24</tspan></text><text x="9" y="292.5" text-anchor="start"><tspan alignment-baseline="middle" x="9" style="font-family: Arial, sans-serif; font-size: 10px; fill: black; font-weight: bold;">L20</tspan></text><text x="9" y="472.67857142857144" text-anchor="start"><tspan alignment-baseline="middle" x="9" style="font-family: Arial, sans-serif; font-size: 10px; fill: black; font-weight: bold;">S10-Rev23</tspan></text></g><g><text x="782.5" y="-4" text-anchor="middle" style="font-family: Arial, sans-serif; font-size: 12px; fill: rgb(123, 123, 123); font-weight: bold;">edad</text><text x="2.5" y="6" text-anchor="middle" style="font-family: Arial, sans-serif; font-size: 12px; fill: rgb(123, 123, 123); font-weight: bold;">plan</text></g></g></svg>